<?xml version="1.0" encoding="utf-8"?>
<!-- Generator: Adobe Illustrator 19.0.0, SVG Export Plug-In . SVG Version: 6.00 Build 0)  -->
<svg version="1.1" id="Layer_1" xmlns="http://www.w3.org/2000/svg" xmlns:xlink="http://www.w3.org/1999/xlink" x="0px" y="0px"
	 viewBox="-5 297 600 200" style="enable-background:new -5 297 600 200;" xml:space="preserve">
<style type="text/css">
	.st0{fill:none;}
	.st1{fill:#FFFFFF;}
	.st2{fill:#010101;}
	.st3{fill:#50B2CE;}
	.st4{fill:#6AB345;}
	.st5{fill:#74CBF1;}
</style>
<g id="XMLID_1_">
	<rect id="SVGID_1_" x="-5.5" y="301" class="st0" width="600.9" height="192.1"/>
	<g id="XMLID_2_">
		<g id="XMLID_38_">
			<path id="XMLID_47_" class="st1" d="M259.4,386.2c0.1-3.7-0.2-7.6-1.9-9.6c-1.7-2.1-5.6-2.8-7.5-2.8c-7,0-9.7,4.2-10.1,5.1
				c-0.2,0.7-1.9,2.4-1.9,13.8v17.7c0,16.3,5.3,18.2,11.9,18.2c2.6,0,10.4-0.9,10.5-13.9h8.7c0.3,20.9-14.3,20.9-18.7,20.9
				c-8.2,0-20.9-0.6-20.9-26.2v-18.7c0-18.7,8.2-24.1,21.2-24.1c13.1,0,18.2,6.8,17.3,19.7L259.4,386.2L259.4,386.2z"/>
			<path id="XMLID_46_" class="st1" d="M276.4,411.6c0-13.6,1.6-24.7,17.6-24.7s17.6,11.2,17.6,24.7c0,20.4-7.8,23.4-17.6,23.4
				S276.4,432.1,276.4,411.6 M303.8,408.5c0-12.6-4-15.4-9.7-15.4s-9.7,2.7-9.7,15.4c0,15,1.9,20.4,9.7,20.4
				C301.8,428.9,303.8,423.5,303.8,408.5"/>
			<path id="XMLID_45_" class="st1" d="M345.4,387.8h7.5v50.9c0,10.4-6.9,12.9-17.1,12.9c-7.7,0-14.7-3.8-14-12.4h8.5
				c0.1,4.3,2.9,6.7,7,6.7c5.2,0,8.1-3.2,8.1-8v-9.6h-0.3c-1.9,3.7-6.1,5.8-10.2,5.8c-12.5,0-15-10.8-15-24.6
				c0-21.2,10.7-22.6,14.5-22.6c4.9,0,8.7,2.1,10.8,6.6h0.2L345.4,387.8L345.4,387.8z M336.6,393.2c-8.5,0-8.8,10.3-8.8,16.4
				c0,14.9,3.4,18.3,9,18.3c9,0,8.8-10.7,8.8-17.2C345.5,403.8,346,393.2,336.6,393.2"/>
			<path id="XMLID_44_" class="st1" d="M390.3,434.1V402c0-5-1.7-8.9-8.1-8.9c-8.2,0-9.5,7.3-9.5,13.7v27.4h-7.6v-36.7
				c0-3.2-0.2-6.4-0.5-9.6h8v6h0.3c2.9-5.2,6.4-6.9,12.4-6.9c9.9,0,12.4,6,12.4,15.1v32.1h-7.6V434.1z"/>
			<path id="XMLID_43_" class="st1" d="M411,367.9h8.5v8H411V367.9z M418.9,434.1h-7.6v-46.3h7.6V434.1z"/>
			<polygon id="XMLID_42_" class="st1" points="459,394.7 438.6,428 459.7,428 459.7,434.1 430.5,434.1 430.5,427.1 450.6,394.2 
				450.6,394 431.5,394 431.5,387.8 459,387.8 			"/>
			<path id="XMLID_41_" class="st1" d="M492.4,427.4h-0.2c-2.3,5.3-5.9,7.6-11.6,7.6c-9.8,0-12.6-6.3-12.6-15.2
				c0-14,13.8-14.7,24.3-14.3c0.2-6.1,0.3-12.9-7.8-12.9c-5.1,0-7.7,3.4-7.2,8.2H469c0.3-10.4,5.9-13.9,15.7-13.9
				c11.9,0,15,6.1,15,13.9V423c0,3.6,0.3,7.5,0.9,11h-8.2L492.4,427.4L492.4,427.4z M475.4,420.4c0,4.5,2.1,8.5,7.2,8.5
				c4.6,0,10.3-2.8,9.5-17.8C485,411.3,475.4,410.6,475.4,420.4"/>
			<path id="XMLID_40_" class="st1" d="M537,434.1V402c0-5-1.7-8.9-8.1-8.9c-8.2,0-9.5,7.3-9.5,13.7v27.4h-7.5v-36.7
				c0-3.2-0.2-6.4-0.5-9.6h8v6h0.3c2.9-5.2,6.4-6.9,12.4-6.9c9.9,0,12.4,6,12.4,15.1v32.1H537V434.1z"/>
			<path id="XMLID_39_" class="st1" d="M559.3,387.8v-8.9l7.6-3.4v12.3h10.1v5.6h-10.1v28.3c0,2.9,0,6.7,6.9,6.7
				c0.6,0,1.7-0.2,3.4-0.3v5.8c-2.5,0.2-5,0.7-7.5,0.7c-7.1,0-10.4-2.9-10.4-8.2v-32.8h-7.6v-5.6h7.6V387.8z"/>
		</g>
		<g id="XMLID_3_">
			<path id="XMLID_37_" class="st2" d="M99.8,315.5c-47.1,0-85.2,38.2-85.2,85.2c0,47.1,38.2,85.2,85.2,85.2
				c47.1,0,85.2-38.2,85.2-85.2C184.9,353.6,146.9,315.5,99.8,315.5"/>
			<path id="XMLID_36_" class="st3" d="M106.5,449.5c0,4.1-1.7,8.7-6.7,8.7c-4.9,0-6.3-4.6-6.3-8.7v-12.2
				c-12.8-5.8-25.2-13.7-36.7-23.4v34.2c0,24.8,19.7,37.3,43,37.3c22.7,0,42.6-12,43.3-35.9c-11.5-0.2-24.1-2.6-36.7-7v7H106.5z"/>
			<path id="XMLID_35_" class="st3" d="M129.5,419.5h-23l0,0c5.5,2.9,10.8,4.5,15.7,4.5C127.5,424,129.5,422.2,129.5,419.5"/>
			<path id="XMLID_30_" class="st3" d="M77,374.4c-15,0-4.2,14.7,6,26c3.4,3.7,6.9,7.2,10.5,10.2v-30.9c-0.9-0.6-1.7-1-2.6-1.5
				C86,375.6,81.4,374.4,77,374.4"/>
			<path id="XMLID_28_" class="st3" d="M93.5,351.9c0-4.1,1.5-8.7,6.3-8.7s6.7,4.6,6.7,8.7v9.3c7.3,3.4,14.7,7.7,21.7,12.8H143
				v-20.6c0-24.8-20.2-37.3-43.4-37.3c-22,0-40.7,11-42.8,33c11.2,0.3,23.7,2.5,36.5,6.9v-4.1H93.5z"/>
			<path id="XMLID_27_" class="st4" d="M165.4,409.8l-40.5,0.1c2.7,3.6,4.6,7,4.6,9.6H143v28.6c0,0.5,0,0.9,0,1.4c0.7,0,1.5,0,2.1,0
				c14.1,0,24.7-2.7,29.1-8.9C178.8,434.1,176.7,424.2,165.4,409.8"/>
			<path id="XMLID_26_" class="st4" d="M57,349.1c-1,0-2,0-3.2,0c-33.4,0.1-40.5,18.9-11.2,51.3c4.4,4.9,9.1,9.5,14,13.7v-60.5
				C56.8,351.9,56.9,350.4,57,349.1"/>
			<path id="XMLID_25_" class="st4" d="M106.5,361.1c-4.3-2-8.7-3.7-13-5.3v23.7c3.7,2.1,7.3,5,10.5,8.4l40.7-0.1
				c-5.3-5.2-10.8-9.8-16.5-13.9h-21.7V361.1z"/>
			<path id="XMLID_23_" class="st4" d="M106.5,442.5v-22.9c-4.3-2.3-8.7-5.3-13-9v26.8C97.8,439.2,102.1,441,106.5,442.5"/>
			<path id="XMLID_22_" class="st5" d="M93.5,410.5c-3.5-3-7-6.4-10.5-10.2c-10.2-11.3-21.1-26-6-26c4.4,0,9,1.2,13.9,3.7
				c0.9,0.5,1.7,0.9,2.6,1.5v-23.7c-12.8-4.4-25.3-6.6-36.5-6.9c-0.1,1.4-0.2,2.8-0.2,4.3v60.5c11.4,9.7,23.9,17.6,36.7,23.4V410.5z
				"/>
			<path id="XMLID_20_" class="st5" d="M106.5,373.9h21.7c-7.1-5.1-14.3-9.3-21.7-12.8V373.9z"/>
			<path id="XMLID_19_" class="st5" d="M143,419.5h-13.6c0,2.7-2,4.5-7.3,4.5c-4.9,0-10.2-1.6-15.7-4.5v22.9
				c12.6,4.4,25.1,6.7,36.7,7c0-0.5,0-0.9,0-1.4v-28.6H143z"/>
			<path id="XMLID_4_" class="st1" d="M192.3,456.7c-1.5,1.5-3.3,2.3-5.4,2.3c-2.1,0-4-0.8-5.4-2.3c-1.5-1.5-2.3-3.3-2.3-5.4
				s0.8-3.8,2.3-5.4c1.5-1.5,3.3-2.3,5.3-2.3c2.1,0,4,0.8,5.4,2.3c1.5,1.5,2.3,3.3,2.3,5.4C194.5,453.4,193.9,455.2,192.3,456.7
				 M182.3,446.6c-1.2,1.2-1.9,2.8-1.9,4.6s0.7,3.4,1.9,4.6c1.2,1.2,2.8,1.9,4.6,1.9s3.4-0.7,4.6-1.9s1.9-2.8,1.9-4.6
				s-0.7-3.4-1.9-4.6c-1.2-1.2-2.8-1.9-4.6-1.9S183.6,445.4,182.3,446.6 M186.8,447.1c1,0,1.8,0.1,2.3,0.3c0.9,0.3,1.2,1,1.2,2.1
				c0,0.8-0.2,1.2-0.8,1.7c-0.3,0.2-0.7,0.3-1.2,0.5c0.7,0.1,1.1,0.3,1.5,0.8c0.3,0.5,0.5,0.9,0.5,1.2v0.6c0,0.2,0,0.5,0,0.7
				c0,0.2,0,0.3,0.1,0.5v0.1h-1.4c0,0,0,0,0-0.1v-0.1v-0.2v-0.7c0-1-0.2-1.6-0.8-1.9c-0.3-0.2-0.9-0.2-1.7-0.2h-1.1v3.3h-1.5v-8.4
				h2.9V447.1z M188.3,448.4c-0.3-0.2-1-0.3-1.8-0.3h-1.2v3h1.4c0.7,0,1.1-0.1,1.4-0.2c0.6-0.2,0.9-0.7,0.9-1.4
				C188.9,449,188.8,448.7,188.3,448.4"/>
		</g>
	</g>
</g>
</svg>
